<svg xmlns="http://www.w3.org/2000/svg" viewBox="0 -1 49 41" width="50" height="50">
	<style>
		tspan { white-space:pre }
		.shp0 { fill: #e8663c } 
	</style>
	<g id="Features">
		<g id="Work">
			<path id="icon" class="shp0" d="M48.19 9.15L40.46 1.41C39.56 0.51 38.1 0.51 37.2 1.41L19.08 19.54L11.66 12.12C10.76 11.22 9.31 11.22 8.41 12.12L0.67 19.85C-0.23 20.75 -0.23 22.21 0.67 23.11L9.42 31.85C9.5 31.97 9.59 32.08 9.69 32.18L17.42 39.91C17.85 40.34 18.44 40.59 19.05 40.59C19.66 40.59 20.25 40.34 20.68 39.91L48.19 12.4C48.62 11.97 48.86 11.38 48.86 10.77C48.86 10.16 48.62 9.58 48.19 9.15Z" />
		</g>
	</g>
</svg>