<svg xmlns="http://www.w3.org/2000/svg" viewBox="0 0 46 46" width="50" height="50">
	<style>
		tspan { white-space:pre }
		.shp0 { fill: #e8663c } 
	</style>
	<g id="Features">
		<g id="Portfolio">
			<path id="icon" class="shp0" d="M45.99 25.93L45.99 20.05L41.07 19.65C40.9 18.69 40.64 17.74 40.32 16.83L44.38 14.04L41.44 8.94L36.98 11.06C36.35 10.32 35.66 9.63 34.92 9L37.04 4.54L31.94 1.6L29.14 5.66C28.23 5.34 27.29 5.08 26.32 4.91L25.93 -0.01L20.05 -0.01L19.65 4.91C18.68 5.08 17.74 5.34 16.83 5.66L14.04 1.6L8.94 4.54L11.06 9C10.32 9.63 9.63 10.32 9 11.06L4.54 8.94L1.6 14.04L5.66 16.83C5.33 17.74 5.08 18.69 4.9 19.66L-0.01 20.05L-0.01 25.93L4.9 26.33C5.08 27.29 5.33 28.24 5.66 29.15L1.6 31.94L4.54 37.04L9 34.92C9.63 35.66 10.32 36.35 11.06 36.98L8.94 41.44L14.04 44.38L16.83 40.32C17.74 40.65 18.68 40.9 19.65 41.07L20.05 45.99L25.93 45.99L26.32 41.07C27.29 40.9 28.23 40.65 29.14 40.32L31.94 44.38L37.04 41.44L34.92 36.98C35.66 36.35 36.35 35.66 36.98 34.92L41.44 37.04L44.38 31.94L40.32 29.15C40.64 28.24 40.9 27.29 41.07 26.33L45.99 25.93ZM22.99 34.49C16.64 34.49 11.49 29.34 11.49 22.99C11.49 16.64 16.64 11.49 22.99 11.49C29.34 11.49 34.49 16.64 34.49 22.99C34.49 29.34 29.34 34.49 22.99 34.49Z" />
		</g>
	</g>
</svg>